<?xml version="1.0" encoding="UTF-8" standalone="no"?>
<!-- Created with Inkscape (http://www.inkscape.org/) -->

<svg
   width="37.703125mm"
   height="23.045208mm"
   viewBox="0 0 37.703125 23.045208"
   version="1.1"
   id="svg1"
   xml:space="preserve"
   inkscape:version="1.4 (e7c3feb100, 2024-10-09)"
   sodipodi:docname="M05-B_rear.svg"
   inkscape:export-filename="M05-B_rear.png"
   inkscape:export-xdpi="300"
   inkscape:export-ydpi="300"
   xmlns:inkscape="http://www.inkscape.org/namespaces/inkscape"
   xmlns:sodipodi="http://sodipodi.sourceforge.net/DTD/sodipodi-0.dtd"
   xmlns="http://www.w3.org/2000/svg"
   xmlns:svg="http://www.w3.org/2000/svg"><sodipodi:namedview
     id="namedview1"
     pagecolor="#ffffff"
     bordercolor="#666666"
     borderopacity="1.0"
     inkscape:showpageshadow="2"
     inkscape:pageopacity="0.0"
     inkscape:pagecheckerboard="0"
     inkscape:deskcolor="#d1d1d1"
     inkscape:document-units="mm"
     inkscape:zoom="2.0184125"
     inkscape:cx="59.452664"
     inkscape:cy="88.188118"
     inkscape:window-width="1290"
     inkscape:window-height="761"
     inkscape:window-x="26"
     inkscape:window-y="23"
     inkscape:window-maximized="0"
     inkscape:current-layer="g215"
     showguides="true"><sodipodi:guide
       position="81.138462,40.816937"
       orientation="1,0"
       id="guide1"
       inkscape:locked="false" /></sodipodi:namedview><defs
     id="defs1" /><g
     inkscape:label="Layer 1"
     inkscape:groupmode="layer"
     id="layer1"
     transform="translate(-37.5902,-31.840417)">
			<g
   id="g215"
   transform="matrix(0.26458333,0,0,0.26458333,-7.8122994,-0.862083)"><g
     id="g214"
     transform="matrix(-1,0,0,1,485.7,0)"><line
       fill="none"
       stroke="#000000"
       stroke-width="0.6"
       stroke-miterlimit="2"
       x1="304.29999"
       y1="175.3"
       x2="304.29999"
       y2="161.2"
       id="line114" /><line
       fill="none"
       stroke="#000000"
       stroke-width="0.6"
       stroke-miterlimit="2"
       x1="308.79999"
       y1="161.2"
       x2="308.79999"
       y2="175.3"
       id="line115" /><line
       fill="none"
       stroke="#000000"
       stroke-width="0.6"
       stroke-miterlimit="2"
       x1="283.70001"
       y1="175.3"
       x2="283.70001"
       y2="161.2"
       id="line116" /><line
       fill="none"
       stroke="#000000"
       stroke-width="0.6"
       stroke-miterlimit="2"
       x1="274.60001"
       y1="161.2"
       x2="274.60001"
       y2="175.3"
       id="line117" /><line
       fill="none"
       stroke="#000000"
       stroke-width="0.6"
       stroke-miterlimit="2"
       x1="249.2"
       y1="175.3"
       x2="249.2"
       y2="161.2"
       id="line118" /><line
       fill="none"
       stroke="#000000"
       stroke-width="0.6"
       stroke-miterlimit="2"
       x1="240.10001"
       y1="161.2"
       x2="240.10001"
       y2="175.3"
       id="line119" /><polyline
       fill="none"
       stroke="#000000"
       stroke-width="0.6"
       stroke-miterlimit="2"
       points="304.5,154 297.3,154 297.3,146.8 304.5,146.8 304.5,154"
       id="polyline145" /><polyline
       fill="none"
       stroke="#000000"
       stroke-width="0.6"
       stroke-miterlimit="2"
       points="293.8,154 286.6,154 286.6,146.8 293.8,146.8 293.8,154"
       id="polyline149" /><polyline
       fill="none"
       stroke="#000000"
       stroke-width="0.6"
       stroke-miterlimit="2"
       points="283.1,154 275.9,154 275.9,146.8 283.1,146.8 283.1,154"
       id="polyline154" /><polyline
       fill="none"
       stroke="#000000"
       stroke-width="0.6"
       stroke-miterlimit="2"
       points="282.6,160.2 282.6,161.2 309.8,161.2 309.8,160.2 282.6,160.2"
       id="polyline156" /><polyline
       fill="none"
       stroke="#000000"
       stroke-width="0.6"
       stroke-miterlimit="2"
       points="272.5,154 265.3,154 265.3,146.8 272.5,146.8 272.5,154"
       id="polyline161" /><polyline
       fill="none"
       stroke="#000000"
       stroke-width="0.6"
       stroke-miterlimit="2"
       points="304.8,189.6 297.6,189.6 297.6,182.4 304.8,182.4 304.8,189.6"
       id="polyline163" /><polyline
       fill="none"
       stroke="#000000"
       stroke-width="0.6"
       stroke-miterlimit="2"
       points="310.3,176.8 282.1,176.8 282.1,159.7 310.3,159.7 310.3,176.8"
       id="polyline164" /><polyline
       fill="none"
       stroke="#000000"
       stroke-width="0.6"
       stroke-miterlimit="2"
       points="282.6,175.3 282.6,176.3 309.8,176.3 309.8,175.3 282.6,175.3"
       id="polyline166" /><polyline
       fill="none"
       stroke="#000000"
       stroke-width="0.6"
       stroke-miterlimit="2"
       points="261.8,154 254.6,154 254.6,146.8 261.8,146.8 261.8,154"
       id="polyline168" /><polyline
       fill="none"
       stroke="#000000"
       stroke-width="0.6"
       stroke-miterlimit="2"
       points="310.3,206.6 306.6,206.6 306.6,180.3 310.3,180.3 310.3,206.6"
       id="polyline169" /><polyline
       fill="none"
       stroke="#000000"
       stroke-width="0.6"
       stroke-miterlimit="2"
       points="294.2,189.6 287,189.6 287,182.4 294.2,182.4 294.2,189.6"
       id="polyline172" /><polyline
       fill="none"
       stroke="#000000"
       stroke-width="0.6"
       stroke-miterlimit="2"
       points="304.5,203.6 297.3,203.6 297.3,196.4 304.5,196.4 304.5,203.6"
       id="polyline173" /><polyline
       fill="none"
       stroke="#000000"
       stroke-width="0.6"
       stroke-miterlimit="2"
       points="251.1,154 243.9,154 243.9,146.8 251.1,146.8 251.1,154"
       id="polyline175" /><polyline
       fill="none"
       stroke="#000000"
       stroke-width="0.6"
       stroke-miterlimit="2"
       points="283.5,189.6 276.3,189.6 276.3,182.4 283.5,182.4 283.5,189.6"
       id="polyline176" /><polyline
       fill="none"
       stroke="#000000"
       stroke-width="0.6"
       stroke-miterlimit="2"
       points="248.2,160.2 248.2,161.2 275.6,161.2 275.6,160.2 248.2,160.2"
       id="polyline177" /><polyline
       fill="none"
       stroke="#000000"
       stroke-width="0.6"
       stroke-miterlimit="2"
       points="293.8,203.6 286.6,203.6 286.6,196.4 293.8,196.4 293.8,203.6"
       id="polyline178" /><polyline
       fill="none"
       stroke="#000000"
       stroke-width="0.6"
       stroke-miterlimit="2"
       points="240.5,154 233.3,154 233.3,146.8 240.5,146.8 240.5,154"
       id="polyline179" /><polyline
       fill="none"
       stroke="#000000"
       stroke-width="0.6"
       stroke-miterlimit="2"
       points="272.8,189.6 265.6,189.6 265.6,182.4 272.8,182.4 272.8,189.6"
       id="polyline180" /><polyline
       fill="none"
       stroke="#000000"
       stroke-width="0.6"
       stroke-miterlimit="2"
       points="276.1,176.8 247.7,176.8 247.7,159.7 276.1,159.7 276.1,176.8"
       id="polyline182" /><polyline
       fill="none"
       stroke="#000000"
       stroke-width="0.6"
       stroke-miterlimit="2"
       points="283.1,203.6 275.9,203.6 275.9,196.4 283.1,196.4 283.1,203.6"
       id="polyline183" /><polyline
       fill="none"
       stroke="#000000"
       stroke-width="0.6"
       stroke-miterlimit="2"
       points="248.2,175.3 248.2,176.3 275.6,176.3 275.6,175.3 248.2,175.3"
       id="polyline184" /><polyline
       fill="none"
       stroke="#000000"
       stroke-width="0.6"
       stroke-miterlimit="2"
       points="229.8,154 222.6,154 222.6,146.8 229.8,146.8 229.8,154"
       id="polyline185" /><polyline
       fill="none"
       stroke="#000000"
       stroke-width="0.6"
       stroke-miterlimit="2"
       points="262.1,189.6 255,189.6 255,182.4 262.1,182.4 262.1,189.6"
       id="polyline186" /><polyline
       fill="none"
       stroke="#000000"
       stroke-width="0.6"
       stroke-miterlimit="2"
       points="272.5,203.6 265.3,203.6 265.3,196.4 272.5,196.4 272.5,203.6"
       id="polyline187" /><polyline
       fill="none"
       stroke="#000000"
       stroke-width="0.6"
       stroke-miterlimit="2"
       points="219.1,154 211.9,154 211.9,146.8 219.1,146.8 219.1,154"
       id="polyline188" /><polyline
       fill="none"
       stroke="#000000"
       stroke-width="0.6"
       stroke-miterlimit="2"
       points="251.5,189.6 244.3,189.6 244.3,182.4 251.5,182.4 251.5,189.6"
       id="polyline189" /><polyline
       fill="none"
       stroke="#000000"
       stroke-width="0.6"
       stroke-miterlimit="2"
       points="261.8,203.6 254.6,203.6 254.6,196.4 261.8,196.4 261.8,203.6"
       id="polyline190" /><polyline
       fill="none"
       stroke="#000000"
       stroke-width="0.6"
       stroke-miterlimit="2"
       points="240.8,189.6 233.6,189.6 233.6,182.4 240.8,182.4 240.8,189.6"
       id="polyline193" /><polyline
       fill="none"
       stroke="#000000"
       stroke-width="0.6"
       stroke-miterlimit="2"
       points="251.1,203.6 243.9,203.6 243.9,196.4 251.1,196.4 251.1,203.6"
       id="polyline194" /><polyline
       fill="none"
       stroke="#000000"
       stroke-width="0.6"
       stroke-miterlimit="2"
       points="203.4,154.9 194.6,154.9 194.6,146.1 203.4,146.1 203.4,154.9"
       id="polyline195" /><polyline
       fill="none"
       stroke="#000000"
       stroke-width="0.6"
       stroke-miterlimit="2"
       points="241.6,176.8 211.9,176.8 211.9,159.7 241.6,159.7 241.6,176.8"
       id="polyline197" /><polyline
       fill="none"
       stroke="#000000"
       stroke-width="0.6"
       stroke-miterlimit="2"
       points="212.4,160.2 212.4,176.3 241.1,176.3 241.1,175.3 213.5,175.3 213.5,161.2 241.1,161.2 241.1,160.2 212.4,160.2"
       id="polyline198" /><polyline
       fill="none"
       stroke="#000000"
       stroke-width="0.6"
       stroke-miterlimit="2"
       points="230.1,189.6 222.9,189.6 222.9,182.4 230.1,182.4 230.1,189.6"
       id="polyline199" /><polyline
       fill="none"
       stroke="#000000"
       stroke-width="0.6"
       stroke-miterlimit="2"
       points="240.5,203.6 233.3,203.6 233.3,196.4 240.5,196.4 240.5,203.6"
       id="polyline200" /><polyline
       fill="none"
       stroke="#000000"
       stroke-width="0.6"
       stroke-miterlimit="2"
       points="203.4,168.9 194.6,168.9 194.6,160.1 203.4,160.1 203.4,168.9"
       id="polyline201" /><polyline
       fill="none"
       stroke="#000000"
       stroke-width="0.6"
       stroke-miterlimit="2"
       points="187.4,154.9 178.6,154.9 178.6,146.1 187.4,146.1 187.4,154.9"
       id="polyline202" /><polyline
       fill="none"
       stroke="#000000"
       stroke-width="0.6"
       stroke-miterlimit="2"
       points="219.5,189.6 212.3,189.6 212.3,182.4 219.5,182.4 219.5,189.6"
       id="polyline203" /><polyline
       fill="none"
       stroke="#000000"
       stroke-width="0.6"
       stroke-miterlimit="2"
       points="229.8,203.6 222.6,203.6 222.6,196.4 229.8,196.4 229.8,203.6"
       id="polyline204" /><polyline
       fill="none"
       stroke="#000000"
       stroke-width="0.6"
       stroke-miterlimit="2"
       points="203.4,182.9 194.6,182.9 194.6,174.1 203.4,174.1 203.4,182.9"
       id="polyline205" /><polyline
       fill="none"
       stroke="#000000"
       stroke-width="0.6"
       stroke-miterlimit="2"
       points="187.4,168.9 178.6,168.9 178.6,160.1 187.4,160.1 187.4,168.9"
       id="polyline206" /><polyline
       fill="none"
       stroke="#000000"
       stroke-width="0.6"
       stroke-miterlimit="2"
       points="219.1,203.6 211.9,203.6 211.9,196.4 219.1,196.4 219.1,203.6"
       id="polyline207" /><polyline
       fill="none"
       stroke="#000000"
       stroke-width="0.6"
       stroke-miterlimit="2"
       points="203.4,196.9 194.6,196.9 194.6,188.2 203.4,188.2 203.4,196.9"
       id="polyline208" /><polyline
       fill="none"
       stroke="#000000"
       stroke-width="0.6"
       stroke-miterlimit="2"
       points="187.4,182.9 178.6,182.9 178.6,174.1 187.4,174.1 187.4,182.9"
       id="polyline209"
       transform="matrix(-1,0,0,1,366,0)" /><polyline
       fill="none"
       stroke="#000000"
       stroke-width="0.6"
       stroke-miterlimit="2"
       points="187.4,196.9 178.6,196.9 178.6,188.2 187.4,188.2 187.4,196.9"
       id="polyline210" /><polyline
       fill="none"
       stroke="#000000"
       stroke-width="0.6"
       stroke-miterlimit="2"
       points="171.9,123.9 171.9,210.4 313.8,210.4 313.8,123.9 309.3,123.9 309.3,139 279.9,139 279.9,127.4 263.1,127.4 263.1,140 245.8,140 245.8,127.4 229.1,127.4 229.1,139 213.5,139 213.5,137.5 176.5,137.5 176.5,123.9 171.9,123.9"
       id="polyline211" /><text
       id="t030-n"
       transform="scale(-1,1)"
       font-family="Helvetica"
       font-size="5.2889px"
       x="-218.82158"
       y="187.59621">22</text><text
       id="t031-n"
       font-family="Helvetica"
       font-size="5.2889px"
       x="-216.85783"
       y="152.1216"
       transform="scale(-1,1)">9</text><text
       id="t032-n"
       font-family="Helvetica"
       font-size="5.2889px"
       x="224.75781"
       y="152.1216">8</text><text
       id="t033-n"
       transform="scale(-1,1)"
       font-family="Helvetica"
       font-size="5.2889px"
       x="-238.47302"
       y="152.1216">7</text><text
       id="t034-n"
       transform="scale(-1,1)"
       font-family="Helvetica"
       font-size="5.2889px"
       x="-248.99823"
       y="152.1216">6</text><text
       id="t035-n"
       transform="scale(-1,1)"
       font-family="Helvetica"
       font-size="5.2889px"
       x="-259.67761"
       y="152.1216">5</text><text
       id="t036-n"
       transform="scale(-1,1)"
       font-family="Helvetica"
       font-size="5.2889px"
       x="-270.328"
       y="152.1216">4</text><text
       id="t037-n"
       font-family="Helvetica"
       font-size="5.2889px"
       x="-280.92352"
       y="152.1216"
       transform="scale(-1,1)">3</text><text
       id="t038-n"
       transform="scale(-1,1)"
       font-family="Helvetica"
       font-size="5.2889px"
       x="-291.53876"
       y="152.1216">2</text><text
       id="t039-n"
       transform="scale(-1,1)"
       font-family="Helvetica"
       font-size="5.2889px"
       x="-301.60913"
       y="152.1216">1</text><text
       id="t040-n"
       transform="scale(-1,1)"
       font-family="Helvetica"
       font-size="5.2889px"
       x="-218.39395"
       y="201.8188">33</text><text
       id="t041-n"
       transform="scale(-1,1)"
       font-family="Helvetica"
       font-size="5.2889px"
       x="-228.6613"
       y="187.59621">21</text><text
       id="t042-n"
       transform="scale(-1,1)"
       font-family="Helvetica"
       font-size="5.2889px"
       x="-240.11201"
       y="187.59621">20</text><text
       id="t043-n"
       transform="scale(-1,1)"
       font-family="Helvetica"
       font-size="5.2889px"
       x="-251.08675"
       y="187.59621">19</text><text
       id="t044-n"
       transform="scale(-1,1)"
       font-family="Helvetica"
       font-size="5.2889px"
       x="-261.7543"
       y="187.59621">18</text><text
       id="t045-n"
       transform="scale(-1,1)"
       font-family="Helvetica"
       font-size="5.2889px"
       x="-272.52081"
       y="187.59621">17</text><text
       id="t046-n"
       transform="scale(-1,1)"
       font-family="Helvetica"
       font-size="5.2889px"
       x="-283.17331"
       y="187.59621">16</text><text
       id="t047-n"
       transform="scale(-1,1)"
       font-family="Helvetica"
       font-size="5.2889px"
       x="-293.69379"
       y="187.59621">15</text><text
       id="t048-n"
       transform="scale(-1,1)"
       font-family="Helvetica"
       font-size="5.2889px"
       x="-304.54431"
       y="187.59621">14</text><text
       id="t049-n"
       transform="scale(-1,1)"
       font-family="Helvetica"
       font-size="5.2889px"
       x="-229.1284"
       y="201.8188">32</text><text
       id="t050-n"
       transform="scale(-1,1)"
       font-family="Helvetica"
       font-size="5.2889px"
       x="-238.78052"
       y="201.8188">31</text><text
       id="t051-n"
       transform="scale(-1,1)"
       font-family="Helvetica"
       font-size="5.2889px"
       x="-250.31525"
       y="201.8188">30</text><text
       id="t052-n"
       transform="scale(-1,1)"
       font-family="Helvetica"
       font-size="5.2889px"
       x="-260.94089"
       y="201.8188">29</text><text
       id="t053-n"
       transform="scale(-1,1)"
       font-family="Helvetica"
       font-size="5.2889px"
       x="-271.69156"
       y="201.8188">28</text><text
       id="t054-n"
       transform="scale(-1,1)"
       font-family="Helvetica"
       font-size="5.2889px"
       x="-282.33307"
       y="201.8188">27</text><text
       id="t055-n"
       transform="scale(-1,1)"
       font-family="Helvetica"
       font-size="5.2889px"
       x="-293.15344"
       y="201.8188">26</text><text
       id="t056-n"
       font-family="Helvetica"
       font-size="5.2889px"
       x="-303.75797"
       y="201.8188"
       transform="scale(-1,1)">25</text><text
       id="t057-n"
       transform="scale(-1,1)"
       font-family="Helvetica"
       font-size="6.2612px"
       x="-186.52928"
       y="194.6636">35</text><text
       id="t058-n"
       transform="scale(-1,1)"
       font-family="Helvetica"
       font-size="6.2612px"
       x="-202.43111"
       y="194.6636">34</text><text
       id="t059-n"
       transform="scale(-1,1)"
       font-family="Helvetica"
       font-size="6.2612px"
       x="-186.58563"
       y="180.38429">24</text><text
       id="t060-n"
       transform="scale(-1,1)"
       font-family="Helvetica"
       font-size="6.2612px"
       x="-202.35597"
       y="180.38429">23</text><text
       id="t061-n"
       transform="scale(-1,1)"
       font-family="Helvetica"
       font-size="6.2612px"
       x="-186.92374"
       y="167.0161">13</text><text
       id="t062-n"
       transform="scale(-1,1)"
       font-family="Helvetica"
       font-size="6.2612px"
       x="-202.81303"
       y="167.0161">12</text><text
       id="t063-n"
       transform="scale(-1,1)"
       font-family="Helvetica"
       font-size="6.2612px"
       x="-185.92821"
       y="152.6489">11</text><text
       id="t064-n"
       transform="scale(-1,1)"
       font-family="Helvetica"
       font-size="6.2612px"
       x="-202.78799"
       y="152.6489">10</text></g></g>
			</g></svg>
