<?xml version="1.0" encoding="UTF-8" standalone="no"?>
<!-- Created with Inkscape (http://www.inkscape.org/) -->

<svg
   width="92.084625mm"
   height="94.356422mm"
   viewBox="0 0 92.084625 94.356422"
   version="1.1"
   id="svg1"
   xml:space="preserve"
   inkscape:version="1.4 (e7c3feb100, 2024-10-09)"
   sodipodi:docname="M05-B.svg"
   xmlns:inkscape="http://www.inkscape.org/namespaces/inkscape"
   xmlns:sodipodi="http://sodipodi.sourceforge.net/DTD/sodipodi-0.dtd"
   xmlns="http://www.w3.org/2000/svg"
   xmlns:svg="http://www.w3.org/2000/svg"><sodipodi:namedview
     id="namedview1"
     pagecolor="#ffffff"
     bordercolor="#666666"
     borderopacity="1.0"
     inkscape:showpageshadow="2"
     inkscape:pageopacity="0.0"
     inkscape:pagecheckerboard="0"
     inkscape:deskcolor="#d1d1d1"
     inkscape:document-units="mm"
     inkscape:zoom="0.59891303"
     inkscape:cx="363.1579"
     inkscape:cy="419.92741"
     inkscape:window-width="1366"
     inkscape:window-height="768"
     inkscape:window-x="0"
     inkscape:window-y="0"
     inkscape:window-maximized="0"
     inkscape:current-layer="layer1" /><defs
     id="defs1" /><g
     inkscape:label="Layer 1"
     inkscape:groupmode="layer"
     id="layer1"
     transform="translate(-10.27557,-17.764583)">
			<g
   id="g215"
   transform="matrix(0.26458333,0,0,0.26458333,-7.8122994,-0.862083)"><g
     id="g108"><rect
       x="279.89999"
       y="70.699997"
       fill="#d3edfb"
       width="136.10001"
       height="9.8999996"
       id="rect104" /><g
       id="g107"><text
         id="t022"
         transform="translate(282.1675,78.1743)"><tspan
           id="p029-t"
           x="0"
           y="0"
           font-family="Helvetica-Bold"
           font-size="7px">WRK P/No.</tspan><tspan
           id="p030-t"
           x="0"
           y="10"
           font-family="Helvetica"
           font-size="7px">Vender P/No.</tspan><tspan
           id="p031-t"
           x="0"
           y="20"
           font-family="Helvetica"
           font-size="7px">Vender P/Name</tspan></text><text
         id="t023"
         transform="translate(339.3823,78.1743)"><tspan
           id="p032-t"
           x="0"
           y="0"
           font-family="Helvetica-Bold"
           font-size="7px">Not Available</tspan><tspan
           id="p033-n"
           x="0"
           y="10"
           font-family="Helvetica"
           font-size="7px">2188701-3</tspan><tspan
           id="p034-n"
           x="0"
           y="20"
           font-family="Helvetica"
           font-size="7px">AMP_020060_35F</tspan></text><rect
         x="279.89999"
         y="70.699997"
         fill="none"
         stroke="#000000"
         stroke-width="0.6"
         width="136.2"
         height="29.799999"
         id="rect105" /><line
         fill="none"
         stroke="#000000"
         stroke-width="0.6"
         x1="336.5"
         y1="70.699997"
         x2="336.5"
         y2="100.5"
         id="line105" /><line
         fill="none"
         stroke="#000000"
         stroke-width="0.6"
         x1="279.89999"
         y1="80.599998"
         x2="416.10001"
         y2="80.599998"
         id="line106" /><line
         fill="none"
         stroke="#000000"
         stroke-width="0.6"
         x1="279.89999"
         y1="90.5"
         x2="416.10001"
         y2="90.5"
         id="line107" /></g></g><g
     id="g109"><text
       id="t024"
       transform="translate(288.2231,235.3267)"><tspan
         id="p035-t"
         x="0"
         y="0"
         font-family="Helvetica"
         font-size="8px">ILL. (-)</tspan><tspan
         id="p036-t"
         x="0"
         y="10"
         font-family="Helvetica"
         font-size="8px">M-CAN (Low)</tspan><tspan
         id="p037-n"
         x="0"
         y="20"
         font-family="Helvetica"
         font-size="8px">-</tspan><tspan
         id="p038-t"
         x="0"
         y="30"
         font-family="Helvetica"
         font-size="8px">ICU Junction Block</tspan><tspan
         id="p039-t"
         x="0"
         y="40"
         font-family="Helvetica"
         font-size="8px">(Fuse - MODULE2)</tspan><tspan
         id="p040-t"
         x="0"
         y="50"
         font-family="Helvetica"
         font-size="8px">A/V &amp; Navigation Keyboard (Power)</tspan><tspan
         id="p041-t"
         x="0"
         y="60"
         font-family="Helvetica"
         font-size="8px">Front Monitor (Power)</tspan><tspan
         id="p042-n"
         x="0"
         y="70"
         font-family="Helvetica"
         font-size="8px">-</tspan><tspan
         id="p043-n"
         x="0"
         y="80"
         font-family="Helvetica"
         font-size="8px">-</tspan><tspan
         id="p044-n"
         x="0"
         y="90"
         font-family="Helvetica"
         font-size="8px">-</tspan><tspan
         id="p045-n"
         x="0"
         y="100"
         font-family="Helvetica"
         font-size="8px">-</tspan><tspan
         id="p046-n"
         x="0"
         y="110"
         font-family="Helvetica"
         font-size="8px">-</tspan><tspan
         id="p047-n"
         x="0"
         y="120"
         font-family="Helvetica"
         font-size="8px">-</tspan><tspan
         id="p048-n"
         x="0"
         y="130"
         font-family="Helvetica"
         font-size="8px">-</tspan><tspan
         id="p049-t"
         x="0"
         y="140"
         font-family="Helvetica"
         font-size="8px">ICU Junction Block (Fuse - IG3 7)</tspan><tspan
         id="p050-t"
         x="0"
         y="150"
         font-family="Helvetica"
         font-size="8px">ICU Junction Block</tspan><tspan
         id="p051-t"
         x="0"
         y="160"
         font-family="Helvetica"
         font-size="8px">(Fuse - MODULE5)</tspan><tspan
         id="p052-t"
         x="0"
         y="170"
         font-family="Helvetica"
         font-size="8px">A/V &amp; Navigation Keyboard</tspan><tspan
         id="p053-t"
         x="0"
         y="180"
         font-family="Helvetica"
         font-size="8px">(Ground)</tspan><tspan
         id="p054-t"
         x="0"
         y="190"
         font-family="Helvetica"
         font-size="8px">Front Monitor (Ground)</tspan></text><text
       id="t025"
       transform="translate(249.9556,235.3267)"><tspan
         id="p055-n"
         x="0"
         y="0"
         font-family="Helvetica"
         font-size="8px">19. Gr</tspan><tspan
         id="p056-n"
         x="0"
         y="10"
         font-family="Helvetica"
         font-size="8px">20. B</tspan><tspan
         id="p057-n"
         x="0"
         y="20"
         font-family="Helvetica"
         font-size="8px">21. -</tspan><tspan
         id="p058-n"
         x="0"
         y="30"
         font-family="Helvetica"
         font-size="8px">22. L</tspan><tspan
         id="p059-n"
         x="0"
         y="50"
         font-family="Helvetica"
         font-size="8px">23. G</tspan><tspan
         id="p060-n"
         x="0"
         y="60"
         font-family="Helvetica"
         font-size="8px">24. G</tspan><tspan
         id="p061-n"
         x="0"
         y="70"
         font-family="Helvetica"
         font-size="8px">25. -</tspan><tspan
         id="p062-n"
         x="0"
         y="80"
         font-family="Helvetica"
         font-size="8px">26. -</tspan><tspan
         id="p063-n"
         x="0"
         y="90"
         font-family="Helvetica"
         font-size="8px">27. -</tspan><tspan
         id="p064-n"
         x="0"
         y="100"
         font-family="Helvetica"
         font-size="8px">28. -</tspan><tspan
         id="p065-n"
         x="0"
         y="110"
         font-family="Helvetica"
         font-size="8px">29. -</tspan><tspan
         id="p066-n"
         x="0"
         y="120"
         font-family="Helvetica"
         font-size="8px">30. -</tspan><tspan
         id="p067-n"
         x="0"
         y="130"
         font-family="Helvetica"
         font-size="8px">31. -</tspan><tspan
         id="p068-n"
         x="0"
         y="140"
         font-family="Helvetica"
         font-size="8px">32. R</tspan><tspan
         id="p069-n"
         x="0"
         y="150"
         font-family="Helvetica"
         font-size="8px">33. P</tspan><tspan
         id="p070-n"
         x="0"
         y="170"
         font-family="Helvetica"
         font-size="8px">34. B</tspan><tspan
         id="p071-n"
         x="0"
         y="190"
         font-family="Helvetica"
         font-size="8px">35. W</tspan></text><text
       id="t026"
       transform="translate(71.7559,235.3267)"><tspan
         id="p072-n"
         x="0"
         y="0"
         font-family="Helvetica"
         font-size="8px">1. R</tspan><tspan
         id="p073-n"
         x="0"
         y="10"
         font-family="Helvetica"
         font-size="8px">2. R</tspan><tspan
         id="p074-n"
         x="0"
         y="20"
         font-family="Helvetica"
         font-size="8px">3. -</tspan><tspan
         id="p075-n"
         x="0"
         y="30"
         font-family="Helvetica"
         font-size="8px">4. -</tspan><tspan
         id="p076-n"
         x="0"
         y="40"
         font-family="Helvetica"
         font-size="8px">5. -</tspan><tspan
         id="p077-n"
         x="0"
         y="50"
         font-family="Helvetica"
         font-size="8px">6. L</tspan><tspan
         id="p078-n"
         x="0"
         y="60"
         font-family="Helvetica"
         font-size="8px">7. Y</tspan><tspan
         id="p079-n"
         x="0"
         y="70"
         font-family="Helvetica"
         font-size="8px">8. -</tspan><tspan
         id="p080-n"
         x="0"
         y="80"
         font-family="Helvetica"
         font-size="8px">9. -</tspan><tspan
         id="p081-n"
         x="0"
         y="90"
         font-family="Helvetica"
         font-size="8px">10. R</tspan><tspan
         id="p082-n"
         x="0"
         y="110"
         font-family="Helvetica"
         font-size="8px">11. R</tspan><tspan
         id="p083-n"
         x="0"
         y="130"
         font-family="Helvetica"
         font-size="8px">12. B</tspan><tspan
         id="p084-n"
         x="0"
         y="140"
         font-family="Helvetica"
         font-size="8px">13. B</tspan><tspan
         id="p085-n"
         x="0"
         y="150"
         font-family="Helvetica"
         font-size="8px">14. B</tspan><tspan
         id="p086-n"
         x="0"
         y="160"
         font-family="Helvetica"
         font-size="8px">15. B</tspan><tspan
         id="p087-n"
         x="0"
         y="170"
         font-family="Helvetica"
         font-size="8px">16. -</tspan><tspan
         id="p088-n"
         x="0"
         y="180"
         font-family="Helvetica"
         font-size="8px">17. -</tspan><tspan
         id="p089-n"
         x="0"
         y="190"
         font-family="Helvetica"
         font-size="8px">18. -</tspan></text><text
       id="t027"
       transform="translate(110.0244,235.3267)"><tspan
         id="p090-t"
         x="0"
         y="0"
         font-family="Helvetica"
         font-size="8px">MIC RH (+)</tspan><tspan
         id="p091-t"
         x="0"
         y="10"
         font-family="Helvetica"
         font-size="8px">MIC LH (+)</tspan><tspan
         id="p092-n"
         x="0"
         y="20"
         font-family="Helvetica"
         font-size="8px">-</tspan><tspan
         id="p093-n"
         x="0"
         y="30"
         font-family="Helvetica"
         font-size="8px">-</tspan><tspan
         id="p094-n"
         x="0"
         y="40"
         font-family="Helvetica"
         font-size="8px">-</tspan><tspan
         id="p095-t"
         x="0"
         y="50"
         font-family="Helvetica"
         font-size="8px">ILL. (+)</tspan><tspan
         id="p096-t"
         x="0"
         y="60"
         font-family="Helvetica"
         font-size="8px">M-CAN (High)</tspan><tspan
         id="p097-n"
         x="0"
         y="70"
         font-family="Helvetica"
         font-size="8px">-</tspan><tspan
         id="p098-n"
         x="0"
         y="80"
         font-family="Helvetica"
         font-size="8px">-</tspan><tspan
         id="p099-t"
         x="0"
         y="90"
         font-family="Helvetica"
         font-size="8px">ICU Junction Block</tspan><tspan
         id="p100-t"
         x="0"
         y="100"
         font-family="Helvetica"
         font-size="8px">(Fuse - MULTI MEDIA)</tspan><tspan
         id="p101-t"
         x="0"
         y="110"
         font-family="Helvetica"
         font-size="8px">ICU Junction Block</tspan><tspan
         id="p102-t"
         x="0"
         y="120"
         font-family="Helvetica"
         font-size="8px">(Fuse - MULTI MEDIA)</tspan><tspan
         id="p103-t"
         x="0"
         y="130"
         font-family="Helvetica"
         font-size="8px">Ground (</tspan><tspan
         id="p104-h"
         font-family="Helvetica"
         font-size="8px">GM04</tspan><tspan
         id="p105-n"
         font-family="Helvetica"
         font-size="8px">)</tspan><tspan
         id="p106-t"
         x="0"
         y="140"
         font-family="Helvetica"
         font-size="8px">Ground (</tspan><tspan
         id="p107-h"
         font-family="Helvetica"
         font-size="8px">GM04</tspan><tspan
         id="p108-n"
         font-family="Helvetica"
         font-size="8px">)</tspan><tspan
         id="p109-t"
         x="0"
         y="150"
         font-family="Helvetica"
         font-size="8px">MIC RH (-)</tspan><tspan
         id="p110-t"
         x="0"
         y="160"
         font-family="Helvetica"
         font-size="8px">MIC LH (-)</tspan><tspan
         id="p111-n"
         x="0"
         y="170"
         font-family="Helvetica"
         font-size="8px">-</tspan><tspan
         id="p112-n"
         x="0"
         y="180"
         font-family="Helvetica"
         font-size="8px">-</tspan><tspan
         id="p113-n"
         x="0"
         y="190"
         font-family="Helvetica"
         font-size="8px">-</tspan></text></g><text
     id="t028-h"
     transform="translate(67.3936,80.3169)"
     font-family="Helvetica-Bold"
     font-size="10px">M05-B</text><text
     id="t029-t"
     transform="translate(118.7627,80.3169)"
     font-family="Helvetica-Bold"
     font-size="10px">A/V &amp; Navigation Head Unit</text><g
     id="g214"><polyline
       fill="none"
       stroke="#000000"
       stroke-width="0.6"
       stroke-miterlimit="2"
       points="178,134.4 178,134.6 178,134.8 178.1,135 178.2,135.2 178.3,135.4 178.4,135.5 178.6,135.6 178.7,135.8 178.9,135.8 179.1,135.9 179.3,135.9 179.5,136"
       id="polyline109" /><polyline
       fill="none"
       stroke="#000000"
       stroke-width="0.6"
       stroke-miterlimit="2"
       points="171.9,120.9 172,121.1 172,121.2 172.1,121.4 172.1,121.6 172.3,121.8 172.4,121.9"
       id="polyline110" /><line
       fill="none"
       stroke="#000000"
       stroke-width="0.6"
       stroke-miterlimit="2"
       x1="205.89999"
       y1="134.39999"
       x2="205.89999"
       y2="112.3"
       id="line110" /><line
       fill="none"
       stroke="#000000"
       stroke-width="0.6"
       stroke-miterlimit="2"
       x1="248.39999"
       y1="133.39999"
       x2="248.39999"
       y2="137.5"
       id="line111" /><line
       fill="none"
       stroke="#000000"
       stroke-width="0.6"
       stroke-miterlimit="2"
       x1="248.39999"
       y1="131.89999"
       x2="248.39999"
       y2="133.39999"
       id="line112" /><line
       fill="none"
       stroke="#000000"
       stroke-width="0.6"
       stroke-miterlimit="2"
       x1="248.8"
       y1="118.3"
       x2="248.8"
       y2="120.2"
       id="line113" /><polyline
       fill="none"
       stroke="#000000"
       stroke-width="0.6"
       stroke-miterlimit="2"
       points="213.5,112.3 213.4,112.1 213.4,111.9 213.4,111.7 213.3,111.5 213.3,111.3 213.2,111.1 213.1,111 213,110.8 212.8,110.7 212.7,110.5 212.6,110.4 212.4,110.3 212.2,110.1 212.1,110 211.9,110 211.7,109.9 211.5,109.8 211.3,109.8 211.1,109.8 210.9,109.8"
       id="polyline113" /><line
       fill="none"
       stroke="#000000"
       stroke-width="0.6"
       stroke-miterlimit="2"
       x1="304.29999"
       y1="175.3"
       x2="304.29999"
       y2="161.2"
       id="line114" /><line
       fill="none"
       stroke="#000000"
       stroke-width="0.6"
       stroke-miterlimit="2"
       x1="308.79999"
       y1="161.2"
       x2="308.79999"
       y2="175.3"
       id="line115" /><line
       fill="none"
       stroke="#000000"
       stroke-width="0.6"
       stroke-miterlimit="2"
       x1="283.70001"
       y1="175.3"
       x2="283.70001"
       y2="161.2"
       id="line116" /><line
       fill="none"
       stroke="#000000"
       stroke-width="0.6"
       stroke-miterlimit="2"
       x1="274.60001"
       y1="161.2"
       x2="274.60001"
       y2="175.3"
       id="line117" /><line
       fill="none"
       stroke="#000000"
       stroke-width="0.6"
       stroke-miterlimit="2"
       x1="249.2"
       y1="175.3"
       x2="249.2"
       y2="161.2"
       id="line118" /><line
       fill="none"
       stroke="#000000"
       stroke-width="0.6"
       stroke-miterlimit="2"
       x1="240.10001"
       y1="161.2"
       x2="240.10001"
       y2="175.3"
       id="line119" /><line
       fill="none"
       stroke="#000000"
       stroke-width="0.6"
       stroke-miterlimit="2"
       x1="295.20001"
       y1="136.89999"
       x2="295.20001"
       y2="112.3"
       id="line120" /><polyline
       fill="none"
       stroke="#000000"
       stroke-width="0.6"
       stroke-miterlimit="2"
       points="208.4,109.8 208.2,109.8 208,109.8 207.8,109.9 207.6,109.9 207.4,110 207.3,110.1 207.1,110.2 206.9,110.3 206.8,110.4 206.6,110.5 206.5,110.7 206.4,110.8 206.3,111 206.2,111.2 206.1,111.4 206,111.6 206,111.7 205.9,111.9 205.9,112.1 205.9,112.3"
       id="polyline120" /><polyline
       fill="none"
       stroke="#000000"
       stroke-width="0.6"
       stroke-miterlimit="2"
       points="313.4,121.9 313.5,121.8 313.6,121.6 313.7,121.4 313.8,121.2 313.8,121 313.8,120.9"
       id="polyline121" /><polyline
       fill="none"
       stroke="#000000"
       stroke-width="0.6"
       stroke-miterlimit="2"
       points="282.4,115.8 282.4,115.6 282.3,115.4 282.3,115.3 282.2,115.1 282.1,114.9 281.9,114.8 281.8,114.6 281.6,114.5 281.4,114.4"
       id="polyline122" /><line
       fill="none"
       stroke="#000000"
       stroke-width="0.6"
       stroke-miterlimit="2"
       x1="235.60001"
       y1="111.3"
       x2="273.29999"
       y2="111.3"
       id="line122" /><polyline
       fill="none"
       stroke="#000000"
       stroke-width="0.6"
       stroke-miterlimit="2"
       points="227.5,114.4 227.3,114.5 227.1,114.6 227,114.8 226.9,114.9 226.7,115.1 226.7,115.3 226.6,115.4 226.5,115.6 226.5,115.8"
       id="polyline123" /><polyline
       fill="none"
       stroke="#000000"
       stroke-width="0.6"
       stroke-miterlimit="2"
       points="235.6,111.3 235.4,111.3 235.2,111.3 235.1,111.4"
       id="polyline124" /><polyline
       fill="none"
       stroke="#000000"
       stroke-width="0.6"
       stroke-miterlimit="2"
       points="273.9,111.4 273.7,111.3 273.5,111.3 273.3,111.3"
       id="polyline125" /><polyline
       fill="none"
       stroke="#000000"
       stroke-width="0.6"
       stroke-miterlimit="2"
       points="245.7,107.3 245.5,107.3 245.3,107.3 245.1,107.4"
       id="polyline126" /><line
       fill="none"
       stroke="#000000"
       stroke-width="0.6"
       stroke-miterlimit="2"
       x1="245.7"
       y1="107.3"
       x2="263.20001"
       y2="107.3"
       id="line126" /><polyline
       fill="none"
       stroke="#000000"
       stroke-width="0.6"
       stroke-miterlimit="2"
       points="263.8,107.4 263.6,107.3 263.4,107.3 263.2,107.3"
       id="polyline127" /><line
       fill="none"
       stroke="#000000"
       stroke-width="0.6"
       stroke-miterlimit="2"
       x1="260.20001"
       y1="120.2"
       x2="260.10001"
       y2="118.3"
       id="line127" /><polyline
       fill="none"
       stroke="#000000"
       stroke-width="0.6"
       stroke-miterlimit="2"
       points="222.5,112.3 222.5,112.1 222.5,111.9 222.4,111.7 222.4,111.5 222.3,111.3 222.2,111.1 222.1,111 222,110.8 221.9,110.7 221.8,110.5 221.6,110.4 221.5,110.3 221.3,110.1 221.1,110 220.9,110 220.7,109.9 220.5,109.8 220.4,109.8 220.2,109.8 220,109.8"
       id="polyline128" /><polyline
       fill="none"
       stroke="#000000"
       stroke-width="0.6"
       stroke-miterlimit="2"
       points="297.7,109.8 297.5,109.8 297.3,109.8 297.1,109.9 297,109.9 296.8,110 296.6,110.1 296.4,110.2 296.3,110.3 296.1,110.4 295.9,110.5 295.8,110.7 295.7,110.8 295.6,111 295.5,111.2 295.4,111.4 295.3,111.6 295.3,111.7 295.3,111.9 295.2,112.1 295.2,112.3"
       id="polyline129" /><polyline
       fill="none"
       stroke="#000000"
       stroke-width="0.6"
       stroke-miterlimit="2"
       points="288.9,109.8 288.7,109.8 288.5,109.8 288.3,109.9 288.2,109.9 288,110 287.8,110.1 287.6,110.2 287.4,110.3 287.3,110.4 287.1,110.5 287,110.7 286.9,110.8 286.8,111 286.7,111.2 286.6,111.4 286.5,111.6 286.5,111.7 286.4,111.9 286.4,112.1 286.4,112.3"
       id="polyline130" /><polyline
       fill="none"
       stroke="#000000"
       stroke-width="0.6"
       stroke-miterlimit="2"
       points="303.5,110.5 303.4,110.4 303.2,110.3 303,110.2 302.9,110.1 302.7,110 302.5,109.9 302.3,109.9 302.1,109.8 301.9,109.8 301.7,109.8"
       id="polyline131" /><line
       fill="none"
       stroke="#000000"
       stroke-width="0.6"
       stroke-miterlimit="2"
       x1="260.60001"
       y1="133.39999"
       x2="260.5"
       y2="131.89999"
       id="line131" /><line
       fill="none"
       stroke="#000000"
       stroke-width="0.6"
       stroke-miterlimit="2"
       x1="260.60001"
       y1="137.5"
       x2="260.60001"
       y2="133.39999"
       id="line132" /><line
       fill="none"
       stroke="#000000"
       stroke-width="0.6"
       stroke-miterlimit="2"
       x1="226.5"
       y1="127.4"
       x2="226.5"
       y2="137.5"
       id="line133" /><line
       fill="none"
       stroke="#000000"
       stroke-width="0.6"
       stroke-miterlimit="2"
       x1="245.8"
       y1="124.9"
       x2="245.8"
       y2="127.4"
       id="line134" /><line
       fill="none"
       stroke="#000000"
       stroke-width="0.6"
       stroke-miterlimit="2"
       x1="282.39999"
       y1="137.5"
       x2="282.39999"
       y2="127.4"
       id="line135" /><polyline
       fill="none"
       stroke="#000000"
       stroke-width="0.6"
       stroke-miterlimit="2"
       points="306.3,137.5 306.5,137.4 306.7,137.4 306.9,137.3 307.1,137.3 307.2,137.1 307.4,137 307.5,136.9 307.6,136.7 307.7,136.5 307.8,136.3 307.8,136.1 307.8,136"
       id="polyline135" /><polyline
       fill="none"
       stroke="#000000"
       stroke-width="0.6"
       stroke-miterlimit="2"
       points="204.4,136 204.6,135.9 204.8,135.9 205,135.8 205.2,135.7 205.3,135.6 205.5,135.5 205.6,135.4 205.7,135.2 205.8,135 205.9,134.8 205.9,134.6 205.9,134.4"
       id="polyline136" /><polyline
       fill="none"
       stroke="#000000"
       stroke-width="0.6"
       stroke-miterlimit="2"
       points="295.1,137.3 295.2,137.1 295.2,136.9"
       id="polyline137" /><polyline
       fill="none"
       stroke="#000000"
       stroke-width="0.6"
       stroke-miterlimit="2"
       points="303.5,110.5 307.8,114.8 313.8,114.8"
       id="polyline138" /><polyline
       fill="none"
       stroke="#000000"
       stroke-width="0.6"
       stroke-miterlimit="2"
       points="313.8,120.9 313.8,114.8 315.4,116.3 315.4,123.9 314.6,123.1 313.8,122.4 313.4,121.9"
       id="polyline139" /><line
       fill="none"
       stroke="#000000"
       stroke-width="0.6"
       stroke-miterlimit="2"
       x1="288.89999"
       y1="109.8"
       x2="301.70001"
       y2="109.8"
       id="line139" /><polyline
       fill="none"
       stroke="#000000"
       stroke-width="0.6"
       stroke-miterlimit="2"
       points="313.8,122.4 309.3,122.4 308.6,123.1 307.8,123.9 307.8,136"
       id="polyline140" /><polyline
       fill="none"
       stroke="#000000"
       stroke-width="0.6"
       stroke-miterlimit="2"
       points="286.4,112.3 286.4,115.8 295.2,115.8"
       id="polyline141" /><polyline
       fill="none"
       stroke="#000000"
       stroke-width="0.6"
       stroke-miterlimit="2"
       points="281.4,114.4 273.9,111.4 271.6,110.5 263.8,107.4"
       id="polyline142" /><polyline
       fill="none"
       stroke="#000000"
       stroke-width="0.6"
       stroke-miterlimit="2"
       points="282.4,122 289.9,122 289.9,128 282.4,128"
       id="polyline143" /><polyline
       fill="none"
       stroke="#000000"
       stroke-width="0.6"
       stroke-miterlimit="2"
       points="282.4,115.8 282.4,124.9 279.9,122.4 270.3,122.4"
       id="polyline144" /><polyline
       fill="none"
       stroke="#000000"
       stroke-width="0.6"
       stroke-miterlimit="2"
       points="304.5,154 297.3,154 297.3,146.8 304.5,146.8 304.5,154"
       id="polyline145" /><polyline
       fill="none"
       stroke="#000000"
       stroke-width="0.6"
       stroke-miterlimit="2"
       points="280.4,137.5 280.4,138.5 308.8,138.5 308.8,137.5 280.4,137.5"
       id="polyline146" /><polyline
       fill="none"
       stroke="#000000"
       stroke-width="0.6"
       stroke-miterlimit="2"
       points="282.4,124.9 282.4,127.4 281.1,126.1 279.9,124.9 263.1,124.9 263.1,124.9 263.1,127.4"
       id="polyline147" /><polyline
       fill="none"
       stroke="#000000"
       stroke-width="0.6"
       stroke-miterlimit="2"
       points="263.1,124.9 262.8,124.9 260.3,127.4 260.2,120.2"
       id="polyline148" /><polyline
       fill="none"
       stroke="#000000"
       stroke-width="0.6"
       stroke-miterlimit="2"
       points="293.8,154 286.6,154 286.6,146.8 293.8,146.8 293.8,154"
       id="polyline149" /><polyline
       fill="none"
       stroke="#000000"
       stroke-width="0.6"
       stroke-miterlimit="2"
       points="260.3,127.4 260.6,127.4 263.1,124.9"
       id="polyline150" /><polyline
       fill="none"
       stroke="#000000"
       stroke-width="0.6"
       stroke-miterlimit="2"
       points="260.5,131.9 260.2,131.9 260,128 260,122.4 260.1,122.4 260.1,118.9 260.1,118.3 270.3,118.3 270.3,124.9"
       id="polyline151" /><polyline
       fill="none"
       stroke="#000000"
       stroke-width="0.6"
       stroke-miterlimit="2"
       points="260.6,127.4 260.6,128.4 260.6,137.5"
       id="polyline152" /><polyline
       fill="none"
       stroke="#000000"
       stroke-width="0.6"
       stroke-miterlimit="2"
       points="227.5,114.4 235.1,111.4 237.3,110.5 245.1,107.4"
       id="polyline153" /><polyline
       fill="none"
       stroke="#000000"
       stroke-width="0.6"
       stroke-miterlimit="2"
       points="283.1,154 275.9,154 275.9,146.8 283.1,146.8 283.1,154"
       id="polyline154" /><polyline
       fill="none"
       stroke="#000000"
       stroke-width="0.6"
       stroke-miterlimit="2"
       points="260,128 249,128 249,122.4"
       id="polyline155" /><polyline
       fill="none"
       stroke="#000000"
       stroke-width="0.6"
       stroke-miterlimit="2"
       points="282.6,160.2 282.6,161.2 309.8,161.2 309.8,160.2 282.6,160.2"
       id="polyline156" /><polyline
       fill="none"
       stroke="#000000"
       stroke-width="0.6"
       stroke-miterlimit="2"
       points="248.7,127.4 248.3,127.4 245.8,124.9 245.8,124.9 246.2,124.9 248.7,127.4 248.7,120.2"
       id="polyline157" /><polyline
       fill="none"
       stroke="#000000"
       stroke-width="0.6"
       stroke-miterlimit="2"
       points="237.5,122.4 237.5,116.3 271.4,116.3 271.4,122.4"
       id="polyline158" /><polyline
       fill="none"
       stroke="#000000"
       stroke-width="0.6"
       stroke-miterlimit="2"
       points="238.6,124.9 238.6,118.3 248.8,118.3 248.8,118.9 248.8,122.4 260,122.4"
       id="polyline159" /><polyline
       fill="none"
       stroke="#000000"
       stroke-width="0.6"
       stroke-miterlimit="2"
       points="249,128 248.7,131.9 248.4,131.9"
       id="polyline160" /><polyline
       fill="none"
       stroke="#000000"
       stroke-width="0.6"
       stroke-miterlimit="2"
       points="272.5,154 265.3,154 265.3,146.8 272.5,146.8 272.5,154"
       id="polyline161" /><polyline
       fill="none"
       stroke="#000000"
       stroke-width="0.6"
       stroke-miterlimit="2"
       points="248.3,127.4 248.3,128.4 248.3,137.5"
       id="polyline162" /><polyline
       fill="none"
       stroke="#000000"
       stroke-width="0.6"
       stroke-miterlimit="2"
       points="304.8,189.6 297.6,189.6 297.6,182.4 304.8,182.4 304.8,189.6"
       id="polyline163" /><polyline
       fill="none"
       stroke="#000000"
       stroke-width="0.6"
       stroke-miterlimit="2"
       points="310.3,176.8 282.1,176.8 282.1,159.7 310.3,159.7 310.3,176.8"
       id="polyline164" /><polyline
       fill="none"
       stroke="#000000"
       stroke-width="0.6"
       stroke-miterlimit="2"
       points="246.3,137.5 246.3,139.5 262.6,139.5 262.6,137.5 246.3,137.5"
       id="polyline165" /><polyline
       fill="none"
       stroke="#000000"
       stroke-width="0.6"
       stroke-miterlimit="2"
       points="282.6,175.3 282.6,176.3 309.8,176.3 309.8,175.3 282.6,175.3"
       id="polyline166" /><polyline
       fill="none"
       stroke="#000000"
       stroke-width="0.6"
       stroke-miterlimit="2"
       points="238.6,122.4 229.1,122.4 226.5,124.9 226.5,115.8"
       id="polyline167" /><polyline
       fill="none"
       stroke="#000000"
       stroke-width="0.6"
       stroke-miterlimit="2"
       points="261.8,154 254.6,154 254.6,146.8 261.8,146.8 261.8,154"
       id="polyline168" /><polyline
       fill="none"
       stroke="#000000"
       stroke-width="0.6"
       stroke-miterlimit="2"
       points="310.3,206.6 306.6,206.6 306.6,180.3 310.3,180.3 310.3,206.6"
       id="polyline169" /><polyline
       fill="none"
       stroke="#000000"
       stroke-width="0.6"
       stroke-miterlimit="2"
       points="226.5,124.9 226.5,127.4 227.8,126.1 229.1,124.9 245.8,124.9"
       id="polyline170" /><polyline
       fill="none"
       stroke="#000000"
       stroke-width="0.6"
       stroke-miterlimit="2"
       points="222.5,112.3 222.5,115.8 213.5,115.8"
       id="polyline171" /><polyline
       fill="none"
       stroke="#000000"
       stroke-width="0.6"
       stroke-miterlimit="2"
       points="294.2,189.6 287,189.6 287,182.4 294.2,182.4 294.2,189.6"
       id="polyline172" /><polyline
       fill="none"
       stroke="#000000"
       stroke-width="0.6"
       stroke-miterlimit="2"
       points="304.5,203.6 297.3,203.6 297.3,196.4 304.5,196.4 304.5,203.6"
       id="polyline173" /><polyline
       fill="none"
       stroke="#000000"
       stroke-width="0.6"
       stroke-miterlimit="2"
       points="226.5,128 219,128 219,122 226.5,122"
       id="polyline174" /><polyline
       fill="none"
       stroke="#000000"
       stroke-width="0.6"
       stroke-miterlimit="2"
       points="251.1,154 243.9,154 243.9,146.8 251.1,146.8 251.1,154"
       id="polyline175" /><polyline
       fill="none"
       stroke="#000000"
       stroke-width="0.6"
       stroke-miterlimit="2"
       points="283.5,189.6 276.3,189.6 276.3,182.4 283.5,182.4 283.5,189.6"
       id="polyline176" /><polyline
       fill="none"
       stroke="#000000"
       stroke-width="0.6"
       stroke-miterlimit="2"
       points="248.2,160.2 248.2,161.2 275.6,161.2 275.6,160.2 248.2,160.2"
       id="polyline177" /><polyline
       fill="none"
       stroke="#000000"
       stroke-width="0.6"
       stroke-miterlimit="2"
       points="293.8,203.6 286.6,203.6 286.6,196.4 293.8,196.4 293.8,203.6"
       id="polyline178" /><polyline
       fill="none"
       stroke="#000000"
       stroke-width="0.6"
       stroke-miterlimit="2"
       points="240.5,154 233.3,154 233.3,146.8 240.5,146.8 240.5,154"
       id="polyline179" /><polyline
       fill="none"
       stroke="#000000"
       stroke-width="0.6"
       stroke-miterlimit="2"
       points="272.8,189.6 265.6,189.6 265.6,182.4 272.8,182.4 272.8,189.6"
       id="polyline180" /><polyline
       fill="none"
       stroke="#000000"
       stroke-width="0.6"
       stroke-miterlimit="2"
       points="213.5,138.5 228.5,138.5 228.5,137.5 213.5,137.5 213.5,112.3"
       id="polyline181" /><polyline
       fill="none"
       stroke="#000000"
       stroke-width="0.6"
       stroke-miterlimit="2"
       points="276.1,176.8 247.7,176.8 247.7,159.7 276.1,159.7 276.1,176.8"
       id="polyline182" /><polyline
       fill="none"
       stroke="#000000"
       stroke-width="0.6"
       stroke-miterlimit="2"
       points="283.1,203.6 275.9,203.6 275.9,196.4 283.1,196.4 283.1,203.6"
       id="polyline183" /><polyline
       fill="none"
       stroke="#000000"
       stroke-width="0.6"
       stroke-miterlimit="2"
       points="248.2,175.3 248.2,176.3 275.6,176.3 275.6,175.3 248.2,175.3"
       id="polyline184" /><polyline
       fill="none"
       stroke="#000000"
       stroke-width="0.6"
       stroke-miterlimit="2"
       points="229.8,154 222.6,154 222.6,146.8 229.8,146.8 229.8,154"
       id="polyline185" /><polyline
       fill="none"
       stroke="#000000"
       stroke-width="0.6"
       stroke-miterlimit="2"
       points="262.1,189.6 255,189.6 255,182.4 262.1,182.4 262.1,189.6"
       id="polyline186" /><polyline
       fill="none"
       stroke="#000000"
       stroke-width="0.6"
       stroke-miterlimit="2"
       points="272.5,203.6 265.3,203.6 265.3,196.4 272.5,196.4 272.5,203.6"
       id="polyline187" /><polyline
       fill="none"
       stroke="#000000"
       stroke-width="0.6"
       stroke-miterlimit="2"
       points="219.1,154 211.9,154 211.9,146.8 219.1,146.8 219.1,154"
       id="polyline188" /><polyline
       fill="none"
       stroke="#000000"
       stroke-width="0.6"
       stroke-miterlimit="2"
       points="251.5,189.6 244.3,189.6 244.3,182.4 251.5,182.4 251.5,189.6"
       id="polyline189" /><polyline
       fill="none"
       stroke="#000000"
       stroke-width="0.6"
       stroke-miterlimit="2"
       points="261.8,203.6 254.6,203.6 254.6,196.4 261.8,196.4 261.8,203.6"
       id="polyline190" /><line
       fill="none"
       stroke="#000000"
       stroke-width="0.6"
       stroke-miterlimit="2"
       x1="171.89999"
       y1="114.8"
       x2="171.89999"
       y2="120.9"
       id="line190" /><polyline
       fill="none"
       stroke="#000000"
       stroke-width="0.6"
       stroke-miterlimit="2"
       points="172.4,121.9 171.9,122.4 176.5,122.4 177.2,123.1 178,123.9 178,134.4"
       id="polyline191" /><polyline
       fill="none"
       stroke="#000000"
       stroke-width="0.6"
       stroke-miterlimit="2"
       points="171.9,122.4 171.2,123.1 170.4,123.9 170.4,116.3 171.9,114.8 185.5,114.8 198.4,109.8 220,109.8"
       id="polyline192" /><polyline
       fill="none"
       stroke="#000000"
       stroke-width="0.6"
       stroke-miterlimit="2"
       points="240.8,189.6 233.6,189.6 233.6,182.4 240.8,182.4 240.8,189.6"
       id="polyline193" /><polyline
       fill="none"
       stroke="#000000"
       stroke-width="0.6"
       stroke-miterlimit="2"
       points="251.1,203.6 243.9,203.6 243.9,196.4 251.1,196.4 251.1,203.6"
       id="polyline194" /><polyline
       fill="none"
       stroke="#000000"
       stroke-width="0.6"
       stroke-miterlimit="2"
       points="203.4,154.9 194.6,154.9 194.6,146.1 203.4,146.1 203.4,154.9"
       id="polyline195" /><polyline
       fill="none"
       stroke="#000000"
       stroke-width="0.6"
       stroke-miterlimit="2"
       points="213.5,136 177,136 177,137 213.5,137"
       id="polyline196" /><polyline
       fill="none"
       stroke="#000000"
       stroke-width="0.6"
       stroke-miterlimit="2"
       points="241.6,176.8 211.9,176.8 211.9,159.7 241.6,159.7 241.6,176.8"
       id="polyline197" /><polyline
       fill="none"
       stroke="#000000"
       stroke-width="0.6"
       stroke-miterlimit="2"
       points="212.4,160.2 212.4,176.3 241.1,176.3 241.1,175.3 213.5,175.3 213.5,161.2 241.1,161.2 241.1,160.2 212.4,160.2"
       id="polyline198" /><polyline
       fill="none"
       stroke="#000000"
       stroke-width="0.6"
       stroke-miterlimit="2"
       points="230.1,189.6 222.9,189.6 222.9,182.4 230.1,182.4 230.1,189.6"
       id="polyline199" /><polyline
       fill="none"
       stroke="#000000"
       stroke-width="0.6"
       stroke-miterlimit="2"
       points="240.5,203.6 233.3,203.6 233.3,196.4 240.5,196.4 240.5,203.6"
       id="polyline200" /><polyline
       fill="none"
       stroke="#000000"
       stroke-width="0.6"
       stroke-miterlimit="2"
       points="203.4,168.9 194.6,168.9 194.6,160.1 203.4,160.1 203.4,168.9"
       id="polyline201" /><polyline
       fill="none"
       stroke="#000000"
       stroke-width="0.6"
       stroke-miterlimit="2"
       points="187.4,154.9 178.6,154.9 178.6,146.1 187.4,146.1 187.4,154.9"
       id="polyline202" /><polyline
       fill="none"
       stroke="#000000"
       stroke-width="0.6"
       stroke-miterlimit="2"
       points="219.5,189.6 212.3,189.6 212.3,182.4 219.5,182.4 219.5,189.6"
       id="polyline203" /><polyline
       fill="none"
       stroke="#000000"
       stroke-width="0.6"
       stroke-miterlimit="2"
       points="229.8,203.6 222.6,203.6 222.6,196.4 229.8,196.4 229.8,203.6"
       id="polyline204" /><polyline
       fill="none"
       stroke="#000000"
       stroke-width="0.6"
       stroke-miterlimit="2"
       points="203.4,182.9 194.6,182.9 194.6,174.1 203.4,174.1 203.4,182.9"
       id="polyline205" /><polyline
       fill="none"
       stroke="#000000"
       stroke-width="0.6"
       stroke-miterlimit="2"
       points="187.4,168.9 178.6,168.9 178.6,160.1 187.4,160.1 187.4,168.9"
       id="polyline206" /><polyline
       fill="none"
       stroke="#000000"
       stroke-width="0.6"
       stroke-miterlimit="2"
       points="219.1,203.6 211.9,203.6 211.9,196.4 219.1,196.4 219.1,203.6"
       id="polyline207" /><polyline
       fill="none"
       stroke="#000000"
       stroke-width="0.6"
       stroke-miterlimit="2"
       points="203.4,196.9 194.6,196.9 194.6,188.2 203.4,188.2 203.4,196.9"
       id="polyline208" /><polyline
       fill="none"
       stroke="#000000"
       stroke-width="0.6"
       stroke-miterlimit="2"
       points="187.4,182.9 178.6,182.9 178.6,174.1 187.4,174.1 187.4,182.9"
       id="polyline209" /><polyline
       fill="none"
       stroke="#000000"
       stroke-width="0.6"
       stroke-miterlimit="2"
       points="187.4,196.9 178.6,196.9 178.6,188.2 187.4,188.2 187.4,196.9"
       id="polyline210" /><polyline
       fill="none"
       stroke="#000000"
       stroke-width="0.6"
       stroke-miterlimit="2"
       points="171.9,123.9 171.9,210.4 313.8,210.4 313.8,123.9 309.3,123.9 309.3,139 279.9,139 279.9,127.4 263.1,127.4 263.1,140 245.8,140 245.8,127.4 229.1,127.4 229.1,139 213.5,139 213.5,137.5 176.5,137.5 176.5,123.9 171.9,123.9"
       id="polyline211" /><polyline
       fill="none"
       stroke="#000000"
       stroke-width="0.6"
       stroke-miterlimit="2"
       points="315.4,123.9 315.4,210.4 314.6,211.2 313.8,211.9 310.3,211.9 310.3,210.9 175.5,210.9 175.5,211.9 310.3,211.9"
       id="polyline212" /><polyline
       fill="none"
       stroke="#000000"
       stroke-width="0.6"
       stroke-miterlimit="2"
       points="170.4,123.9 170.4,210.4 171.2,211.2 171.9,211.9 175.5,211.9"
       id="polyline213" /><polyline
       fill="none"
       stroke="#000000"
       stroke-width="0.6"
       stroke-miterlimit="2"
       points="315.4,210.4 315.4,212.9 304.3,217 181.5,217 170.4,212.9 170.4,210.4"
       id="polyline214" /><text
       id="t030-n"
       transform="translate(212.9985,187.5962)"
       font-family="Helvetica"
       font-size="5.2889px">22</text><text
       id="t031-n"
       transform="translate(213.9648,152.1216)"
       font-family="Helvetica"
       font-size="5.2889px">9</text><text
       id="t032-n"
       transform="translate(224.7578,152.1216)"
       font-family="Helvetica"
       font-size="5.2889px">8</text><text
       id="t033-n"
       transform="translate(235.4795,152.1216)"
       font-family="Helvetica"
       font-size="5.2889px">7</text><text
       id="t034-n"
       transform="translate(246.0576,152.1216)"
       font-family="Helvetica"
       font-size="5.2889px">6</text><text
       id="t035-n"
       transform="translate(256.7793,152.1216)"
       font-family="Helvetica"
       font-size="5.2889px">5</text><text
       id="t036-n"
       transform="translate(267.4297,152.1216)"
       font-family="Helvetica"
       font-size="5.2889px">4</text><text
       id="t037-n"
       transform="translate(278.0781,152.1216)"
       font-family="Helvetica"
       font-size="5.2889px">3</text><text
       id="t038-n"
       transform="translate(288.6563,152.1216)"
       font-family="Helvetica"
       font-size="5.2889px">2</text><text
       id="t039-n"
       transform="translate(299.2344,152.1216)"
       font-family="Helvetica"
       font-size="5.2889px">1</text><text
       id="t040-n"
       transform="translate(212.6079,201.8188)"
       font-family="Helvetica"
       font-size="5.2889px">33</text><text
       id="t041-n"
       transform="translate(223.7056,187.5962)"
       font-family="Helvetica"
       font-size="5.2889px">21</text><text
       id="t042-n"
       transform="translate(234.3101,187.5962)"
       font-family="Helvetica"
       font-size="5.2889px">20</text><text
       id="t043-n"
       transform="translate(244.9146,187.5962)"
       font-family="Helvetica"
       font-size="5.2889px">19</text><text
       id="t044-n"
       transform="translate(255.561,187.5962)"
       font-family="Helvetica"
       font-size="5.2889px">18</text><text
       id="t045-n"
       transform="translate(266.2905,187.5962)"
       font-family="Helvetica"
       font-size="5.2889px">17</text><text
       id="t046-n"
       transform="translate(276.98,187.5962)"
       font-family="Helvetica"
       font-size="5.2889px">16</text><text
       id="t047-n"
       transform="translate(287.5005,187.5962)"
       font-family="Helvetica"
       font-size="5.2889px">15</text><text
       id="t048-n"
       transform="translate(298.314,187.5962)"
       font-family="Helvetica"
       font-size="5.2889px">14</text><text
       id="t049-n"
       transform="translate(223.3159,201.8188)"
       font-family="Helvetica"
       font-size="5.2889px">32</text><text
       id="t050-n"
       transform="translate(233.8354,201.8188)"
       font-family="Helvetica"
       font-size="5.2889px">31</text><text
       id="t051-n"
       transform="translate(244.5239,201.8188)"
       font-family="Helvetica"
       font-size="5.2889px">30</text><text
       id="t052-n"
       transform="translate(255.1284,201.8188)"
       font-family="Helvetica"
       font-size="5.2889px">29</text><text
       id="t053-n"
       transform="translate(265.8579,201.8188)"
       font-family="Helvetica"
       font-size="5.2889px">28</text><text
       id="t054-n"
       transform="translate(276.4624,201.8188)"
       font-family="Helvetica"
       font-size="5.2889px">27</text><text
       id="t055-n"
       transform="translate(287.3198,201.8188)"
       font-family="Helvetica"
       font-size="5.2889px">26</text><text
       id="t056-n"
       transform="translate(297.9243,201.8188)"
       font-family="Helvetica"
       font-size="5.2889px">25</text><text
       id="t057-n"
       transform="translate(179.6357,194.6636)"
       font-family="Helvetica"
       font-size="6.2612px">35</text><text
       id="t058-n"
       transform="translate(195.4937,194.6636)"
       font-family="Helvetica"
       font-size="6.2612px">34</text><text
       id="t059-n"
       transform="translate(179.6357,180.3843)"
       font-family="Helvetica"
       font-size="6.2612px">24</text><text
       id="t060-n"
       transform="translate(195.4937,180.3843)"
       font-family="Helvetica"
       font-size="6.2612px">23</text><text
       id="t061-n"
       transform="translate(179.6357,167.0161)"
       font-family="Helvetica"
       font-size="6.2612px">13</text><text
       id="t062-n"
       transform="translate(195.4937,167.0161)"
       font-family="Helvetica"
       font-size="6.2612px">12</text><text
       id="t063-n"
       transform="translate(179.6357,152.6489)"
       font-family="Helvetica"
       font-size="6.2612px">11</text><text
       id="t064-n"
       transform="translate(195.4937,152.6489)"
       font-family="Helvetica"
       font-size="6.2612px">10</text></g></g>
			</g></svg>
