<?xml version="1.0" encoding="UTF-8" standalone="no"?>
<!-- Created with Inkscape (http://www.inkscape.org/) -->

<svg
   width="37.703125mm"
   height="23.045208mm"
   viewBox="0 0 37.703125 23.045208"
   version="1.1"
   id="svg1"
   xml:space="preserve"
   inkscape:version="1.4 (e7c3feb100, 2024-10-09)"
   sodipodi:docname="M05-B_face.svg"
   xmlns:inkscape="http://www.inkscape.org/namespaces/inkscape"
   xmlns:sodipodi="http://sodipodi.sourceforge.net/DTD/sodipodi-0.dtd"
   xmlns="http://www.w3.org/2000/svg"
   xmlns:svg="http://www.w3.org/2000/svg"><sodipodi:namedview
     id="namedview1"
     pagecolor="#ffffff"
     bordercolor="#666666"
     borderopacity="1.0"
     inkscape:showpageshadow="2"
     inkscape:pageopacity="0.0"
     inkscape:pagecheckerboard="0"
     inkscape:deskcolor="#d1d1d1"
     inkscape:document-units="mm"
     inkscape:zoom="1.7375459"
     inkscape:cx="91.796136"
     inkscape:cy="77.408027"
     inkscape:window-width="1366"
     inkscape:window-height="768"
     inkscape:window-x="0"
     inkscape:window-y="0"
     inkscape:window-maximized="0"
     inkscape:current-layer="g215"
     showguides="false" /><defs
     id="defs1" /><g
     inkscape:label="Layer 1"
     inkscape:groupmode="layer"
     id="layer1"
     transform="translate(-37.5902,-31.840417)">
			<g
   id="g215"
   transform="matrix(0.26458333,0,0,0.26458333,-7.8122994,-0.862083)"><g
     id="g108"
     transform="translate(-138.65849,-3.6499287)"><g
       id="g107"><text
         id="t023"
         x="325.681"
         y="124.494"><tspan
           id="p033-n"
           x="325.681"
           y="134.494"
           font-family="Helvetica"
           font-size="7px">2188701-3</tspan></text></g></g><g
     id="g214"><line
       fill="none"
       stroke="#000000"
       stroke-width="0.6"
       stroke-miterlimit="2"
       x1="304.29999"
       y1="175.3"
       x2="304.29999"
       y2="161.2"
       id="line114" /><line
       fill="none"
       stroke="#000000"
       stroke-width="0.6"
       stroke-miterlimit="2"
       x1="308.79999"
       y1="161.2"
       x2="308.79999"
       y2="175.3"
       id="line115" /><line
       fill="none"
       stroke="#000000"
       stroke-width="0.6"
       stroke-miterlimit="2"
       x1="283.70001"
       y1="175.3"
       x2="283.70001"
       y2="161.2"
       id="line116" /><line
       fill="none"
       stroke="#000000"
       stroke-width="0.6"
       stroke-miterlimit="2"
       x1="274.60001"
       y1="161.2"
       x2="274.60001"
       y2="175.3"
       id="line117" /><line
       fill="none"
       stroke="#000000"
       stroke-width="0.6"
       stroke-miterlimit="2"
       x1="249.2"
       y1="175.3"
       x2="249.2"
       y2="161.2"
       id="line118" /><line
       fill="none"
       stroke="#000000"
       stroke-width="0.6"
       stroke-miterlimit="2"
       x1="240.10001"
       y1="161.2"
       x2="240.10001"
       y2="175.3"
       id="line119" /><polyline
       fill="none"
       stroke="#000000"
       stroke-width="0.6"
       stroke-miterlimit="2"
       points="304.5,154 297.3,154 297.3,146.8 304.5,146.8 304.5,154"
       id="polyline145" /><polyline
       fill="none"
       stroke="#000000"
       stroke-width="0.6"
       stroke-miterlimit="2"
       points="293.8,154 286.6,154 286.6,146.8 293.8,146.8 293.8,154"
       id="polyline149" /><polyline
       fill="none"
       stroke="#000000"
       stroke-width="0.6"
       stroke-miterlimit="2"
       points="283.1,154 275.9,154 275.9,146.8 283.1,146.8 283.1,154"
       id="polyline154" /><polyline
       fill="none"
       stroke="#000000"
       stroke-width="0.6"
       stroke-miterlimit="2"
       points="282.6,160.2 282.6,161.2 309.8,161.2 309.8,160.2 282.6,160.2"
       id="polyline156" /><polyline
       fill="none"
       stroke="#000000"
       stroke-width="0.6"
       stroke-miterlimit="2"
       points="272.5,154 265.3,154 265.3,146.8 272.5,146.8 272.5,154"
       id="polyline161" /><polyline
       fill="none"
       stroke="#000000"
       stroke-width="0.6"
       stroke-miterlimit="2"
       points="304.8,189.6 297.6,189.6 297.6,182.4 304.8,182.4 304.8,189.6"
       id="polyline163" /><polyline
       fill="none"
       stroke="#000000"
       stroke-width="0.6"
       stroke-miterlimit="2"
       points="310.3,176.8 282.1,176.8 282.1,159.7 310.3,159.7 310.3,176.8"
       id="polyline164" /><polyline
       fill="none"
       stroke="#000000"
       stroke-width="0.6"
       stroke-miterlimit="2"
       points="282.6,175.3 282.6,176.3 309.8,176.3 309.8,175.3 282.6,175.3"
       id="polyline166" /><polyline
       fill="none"
       stroke="#000000"
       stroke-width="0.6"
       stroke-miterlimit="2"
       points="261.8,154 254.6,154 254.6,146.8 261.8,146.8 261.8,154"
       id="polyline168" /><polyline
       fill="none"
       stroke="#000000"
       stroke-width="0.6"
       stroke-miterlimit="2"
       points="310.3,206.6 306.6,206.6 306.6,180.3 310.3,180.3 310.3,206.6"
       id="polyline169" /><polyline
       fill="none"
       stroke="#000000"
       stroke-width="0.6"
       stroke-miterlimit="2"
       points="294.2,189.6 287,189.6 287,182.4 294.2,182.4 294.2,189.6"
       id="polyline172" /><polyline
       fill="none"
       stroke="#000000"
       stroke-width="0.6"
       stroke-miterlimit="2"
       points="304.5,203.6 297.3,203.6 297.3,196.4 304.5,196.4 304.5,203.6"
       id="polyline173" /><polyline
       fill="none"
       stroke="#000000"
       stroke-width="0.6"
       stroke-miterlimit="2"
       points="251.1,154 243.9,154 243.9,146.8 251.1,146.8 251.1,154"
       id="polyline175" /><polyline
       fill="none"
       stroke="#000000"
       stroke-width="0.6"
       stroke-miterlimit="2"
       points="283.5,189.6 276.3,189.6 276.3,182.4 283.5,182.4 283.5,189.6"
       id="polyline176" /><polyline
       fill="none"
       stroke="#000000"
       stroke-width="0.6"
       stroke-miterlimit="2"
       points="248.2,160.2 248.2,161.2 275.6,161.2 275.6,160.2 248.2,160.2"
       id="polyline177" /><polyline
       fill="none"
       stroke="#000000"
       stroke-width="0.6"
       stroke-miterlimit="2"
       points="293.8,203.6 286.6,203.6 286.6,196.4 293.8,196.4 293.8,203.6"
       id="polyline178" /><polyline
       fill="none"
       stroke="#000000"
       stroke-width="0.6"
       stroke-miterlimit="2"
       points="240.5,154 233.3,154 233.3,146.8 240.5,146.8 240.5,154"
       id="polyline179" /><polyline
       fill="none"
       stroke="#000000"
       stroke-width="0.6"
       stroke-miterlimit="2"
       points="272.8,189.6 265.6,189.6 265.6,182.4 272.8,182.4 272.8,189.6"
       id="polyline180" /><polyline
       fill="none"
       stroke="#000000"
       stroke-width="0.6"
       stroke-miterlimit="2"
       points="276.1,176.8 247.7,176.8 247.7,159.7 276.1,159.7 276.1,176.8"
       id="polyline182" /><polyline
       fill="none"
       stroke="#000000"
       stroke-width="0.6"
       stroke-miterlimit="2"
       points="283.1,203.6 275.9,203.6 275.9,196.4 283.1,196.4 283.1,203.6"
       id="polyline183" /><polyline
       fill="none"
       stroke="#000000"
       stroke-width="0.6"
       stroke-miterlimit="2"
       points="248.2,175.3 248.2,176.3 275.6,176.3 275.6,175.3 248.2,175.3"
       id="polyline184" /><polyline
       fill="none"
       stroke="#000000"
       stroke-width="0.6"
       stroke-miterlimit="2"
       points="229.8,154 222.6,154 222.6,146.8 229.8,146.8 229.8,154"
       id="polyline185" /><polyline
       fill="none"
       stroke="#000000"
       stroke-width="0.6"
       stroke-miterlimit="2"
       points="262.1,189.6 255,189.6 255,182.4 262.1,182.4 262.1,189.6"
       id="polyline186" /><polyline
       fill="none"
       stroke="#000000"
       stroke-width="0.6"
       stroke-miterlimit="2"
       points="272.5,203.6 265.3,203.6 265.3,196.4 272.5,196.4 272.5,203.6"
       id="polyline187" /><polyline
       fill="none"
       stroke="#000000"
       stroke-width="0.6"
       stroke-miterlimit="2"
       points="219.1,154 211.9,154 211.9,146.8 219.1,146.8 219.1,154"
       id="polyline188" /><polyline
       fill="none"
       stroke="#000000"
       stroke-width="0.6"
       stroke-miterlimit="2"
       points="251.5,189.6 244.3,189.6 244.3,182.4 251.5,182.4 251.5,189.6"
       id="polyline189" /><polyline
       fill="none"
       stroke="#000000"
       stroke-width="0.6"
       stroke-miterlimit="2"
       points="261.8,203.6 254.6,203.6 254.6,196.4 261.8,196.4 261.8,203.6"
       id="polyline190" /><polyline
       fill="none"
       stroke="#000000"
       stroke-width="0.6"
       stroke-miterlimit="2"
       points="240.8,189.6 233.6,189.6 233.6,182.4 240.8,182.4 240.8,189.6"
       id="polyline193" /><polyline
       fill="none"
       stroke="#000000"
       stroke-width="0.6"
       stroke-miterlimit="2"
       points="251.1,203.6 243.9,203.6 243.9,196.4 251.1,196.4 251.1,203.6"
       id="polyline194" /><polyline
       fill="none"
       stroke="#000000"
       stroke-width="0.6"
       stroke-miterlimit="2"
       points="203.4,154.9 194.6,154.9 194.6,146.1 203.4,146.1 203.4,154.9"
       id="polyline195" /><polyline
       fill="none"
       stroke="#000000"
       stroke-width="0.6"
       stroke-miterlimit="2"
       points="241.6,176.8 211.9,176.8 211.9,159.7 241.6,159.7 241.6,176.8"
       id="polyline197" /><polyline
       fill="none"
       stroke="#000000"
       stroke-width="0.6"
       stroke-miterlimit="2"
       points="212.4,160.2 212.4,176.3 241.1,176.3 241.1,175.3 213.5,175.3 213.5,161.2 241.1,161.2 241.1,160.2 212.4,160.2"
       id="polyline198" /><polyline
       fill="none"
       stroke="#000000"
       stroke-width="0.6"
       stroke-miterlimit="2"
       points="230.1,189.6 222.9,189.6 222.9,182.4 230.1,182.4 230.1,189.6"
       id="polyline199" /><polyline
       fill="none"
       stroke="#000000"
       stroke-width="0.6"
       stroke-miterlimit="2"
       points="240.5,203.6 233.3,203.6 233.3,196.4 240.5,196.4 240.5,203.6"
       id="polyline200" /><polyline
       fill="none"
       stroke="#000000"
       stroke-width="0.6"
       stroke-miterlimit="2"
       points="203.4,168.9 194.6,168.9 194.6,160.1 203.4,160.1 203.4,168.9"
       id="polyline201" /><polyline
       fill="none"
       stroke="#000000"
       stroke-width="0.6"
       stroke-miterlimit="2"
       points="187.4,154.9 178.6,154.9 178.6,146.1 187.4,146.1 187.4,154.9"
       id="polyline202" /><polyline
       fill="none"
       stroke="#000000"
       stroke-width="0.6"
       stroke-miterlimit="2"
       points="219.5,189.6 212.3,189.6 212.3,182.4 219.5,182.4 219.5,189.6"
       id="polyline203" /><polyline
       fill="none"
       stroke="#000000"
       stroke-width="0.6"
       stroke-miterlimit="2"
       points="229.8,203.6 222.6,203.6 222.6,196.4 229.8,196.4 229.8,203.6"
       id="polyline204" /><polyline
       fill="none"
       stroke="#000000"
       stroke-width="0.6"
       stroke-miterlimit="2"
       points="203.4,182.9 194.6,182.9 194.6,174.1 203.4,174.1 203.4,182.9"
       id="polyline205" /><polyline
       fill="none"
       stroke="#000000"
       stroke-width="0.6"
       stroke-miterlimit="2"
       points="187.4,168.9 178.6,168.9 178.6,160.1 187.4,160.1 187.4,168.9"
       id="polyline206" /><polyline
       fill="none"
       stroke="#000000"
       stroke-width="0.6"
       stroke-miterlimit="2"
       points="219.1,203.6 211.9,203.6 211.9,196.4 219.1,196.4 219.1,203.6"
       id="polyline207" /><polyline
       fill="none"
       stroke="#000000"
       stroke-width="0.6"
       stroke-miterlimit="2"
       points="203.4,196.9 194.6,196.9 194.6,188.2 203.4,188.2 203.4,196.9"
       id="polyline208" /><polyline
       fill="none"
       stroke="#000000"
       stroke-width="0.6"
       stroke-miterlimit="2"
       points="187.4,182.9 178.6,182.9 178.6,174.1 187.4,174.1 187.4,182.9"
       id="polyline209" /><polyline
       fill="none"
       stroke="#000000"
       stroke-width="0.6"
       stroke-miterlimit="2"
       points="187.4,196.9 178.6,196.9 178.6,188.2 187.4,188.2 187.4,196.9"
       id="polyline210" /><polyline
       fill="none"
       stroke="#000000"
       stroke-width="0.6"
       stroke-miterlimit="2"
       points="171.9,123.9 171.9,210.4 313.8,210.4 313.8,123.9 309.3,123.9 309.3,139 279.9,139 279.9,127.4 263.1,127.4 263.1,140 245.8,140 245.8,127.4 229.1,127.4 229.1,139 213.5,139 213.5,137.5 176.5,137.5 176.5,123.9 171.9,123.9"
       id="polyline211" /><text
       id="t030-n"
       transform="translate(212.9985,187.5962)"
       font-family="Helvetica"
       font-size="5.2889px">22</text><text
       id="t031-n"
       transform="translate(213.9648,152.1216)"
       font-family="Helvetica"
       font-size="5.2889px">9</text><text
       id="t032-n"
       transform="translate(224.7578,152.1216)"
       font-family="Helvetica"
       font-size="5.2889px">8</text><text
       id="t033-n"
       transform="translate(235.4795,152.1216)"
       font-family="Helvetica"
       font-size="5.2889px">7</text><text
       id="t034-n"
       transform="translate(246.0576,152.1216)"
       font-family="Helvetica"
       font-size="5.2889px">6</text><text
       id="t035-n"
       transform="translate(256.7793,152.1216)"
       font-family="Helvetica"
       font-size="5.2889px">5</text><text
       id="t036-n"
       transform="translate(267.4297,152.1216)"
       font-family="Helvetica"
       font-size="5.2889px">4</text><text
       id="t037-n"
       transform="translate(278.0781,152.1216)"
       font-family="Helvetica"
       font-size="5.2889px">3</text><text
       id="t038-n"
       transform="translate(288.6563,152.1216)"
       font-family="Helvetica"
       font-size="5.2889px">2</text><text
       id="t039-n"
       transform="translate(299.2344,152.1216)"
       font-family="Helvetica"
       font-size="5.2889px">1</text><text
       id="t040-n"
       transform="translate(212.6079,201.8188)"
       font-family="Helvetica"
       font-size="5.2889px">33</text><text
       id="t041-n"
       transform="translate(223.7056,187.5962)"
       font-family="Helvetica"
       font-size="5.2889px">21</text><text
       id="t042-n"
       transform="translate(234.3101,187.5962)"
       font-family="Helvetica"
       font-size="5.2889px">20</text><text
       id="t043-n"
       transform="translate(244.9146,187.5962)"
       font-family="Helvetica"
       font-size="5.2889px">19</text><text
       id="t044-n"
       transform="translate(255.561,187.5962)"
       font-family="Helvetica"
       font-size="5.2889px">18</text><text
       id="t045-n"
       transform="translate(266.2905,187.5962)"
       font-family="Helvetica"
       font-size="5.2889px">17</text><text
       id="t046-n"
       transform="translate(276.98,187.5962)"
       font-family="Helvetica"
       font-size="5.2889px">16</text><text
       id="t047-n"
       transform="translate(287.5005,187.5962)"
       font-family="Helvetica"
       font-size="5.2889px">15</text><text
       id="t048-n"
       transform="translate(298.314,187.5962)"
       font-family="Helvetica"
       font-size="5.2889px">14</text><text
       id="t049-n"
       transform="translate(223.3159,201.8188)"
       font-family="Helvetica"
       font-size="5.2889px">32</text><text
       id="t050-n"
       transform="translate(233.8354,201.8188)"
       font-family="Helvetica"
       font-size="5.2889px">31</text><text
       id="t051-n"
       transform="translate(244.5239,201.8188)"
       font-family="Helvetica"
       font-size="5.2889px">30</text><text
       id="t052-n"
       transform="translate(255.1284,201.8188)"
       font-family="Helvetica"
       font-size="5.2889px">29</text><text
       id="t053-n"
       transform="translate(265.8579,201.8188)"
       font-family="Helvetica"
       font-size="5.2889px">28</text><text
       id="t054-n"
       transform="translate(276.4624,201.8188)"
       font-family="Helvetica"
       font-size="5.2889px">27</text><text
       id="t055-n"
       transform="translate(287.3198,201.8188)"
       font-family="Helvetica"
       font-size="5.2889px">26</text><text
       id="t056-n"
       transform="translate(297.9243,201.8188)"
       font-family="Helvetica"
       font-size="5.2889px">25</text><text
       id="t057-n"
       transform="translate(179.6357,194.6636)"
       font-family="Helvetica"
       font-size="6.2612px">35</text><text
       id="t058-n"
       transform="translate(195.4937,194.6636)"
       font-family="Helvetica"
       font-size="6.2612px">34</text><text
       id="t059-n"
       transform="translate(179.6357,180.3843)"
       font-family="Helvetica"
       font-size="6.2612px">24</text><text
       id="t060-n"
       transform="translate(195.4937,180.3843)"
       font-family="Helvetica"
       font-size="6.2612px">23</text><text
       id="t061-n"
       transform="translate(179.6357,167.0161)"
       font-family="Helvetica"
       font-size="6.2612px">13</text><text
       id="t062-n"
       transform="translate(195.4937,167.0161)"
       font-family="Helvetica"
       font-size="6.2612px">12</text><text
       id="t063-n"
       transform="translate(179.6357,152.6489)"
       font-family="Helvetica"
       font-size="6.2612px">11</text><text
       id="t064-n"
       transform="translate(195.4937,152.6489)"
       font-family="Helvetica"
       font-size="6.2612px">10</text></g></g>
			</g></svg>
